<svg width="163" height="162" viewBox="0 0 163 162" fill="none" xmlns="http://www.w3.org/2000/svg">
  <path
    d="M99.9087 125.838L117.527 72.4099C119.091 68.4946 124.461 68.5834 125.904 72.5485L143.812 125.838L99.9087 125.838Z"
    stroke="#53C3D9" stroke-width="6.57046" stroke-linecap="round" stroke-linejoin="round" />
  <path d="M91.3323 126.289L151.533 126.289" stroke="#53C3D9" stroke-width="6.57046"
    stroke-linecap="round" stroke-linejoin="round" />
  <path d="M109.717 97.0625H133.148" stroke="#53C3D9" stroke-width="6.57046" stroke-linecap="round"
    stroke-linejoin="round" />
  <path d="M107.137 108.094H135.728" stroke="#53C3D9" stroke-width="6.57046" stroke-linecap="round"
    stroke-linejoin="round" />
  <path d="M38 47.8203L67.6048 78.5617" stroke="#53C3D9" stroke-width="6.57046"
    stroke-linecap="round" stroke-linejoin="round" />
  <path d="M31.78 64.6562L45.1699 78.5596" stroke="#53C3D9" stroke-width="6.57046"
    stroke-linecap="round" stroke-linejoin="round" />
  <path d="M61.7268 47.8203L83.5541 70.4853" stroke="#53C3D9" stroke-width="6.57046"
    stroke-linecap="round" stroke-linejoin="round" />
  <path d="M36.5664 47.5156H91.3319" stroke="#53C3D9" stroke-width="6.57046" stroke-linecap="round"
    stroke-linejoin="round" />
  <path d="M26.8179 78.4844H81.5833" stroke="#53C3D9" stroke-width="6.57046" stroke-linecap="round"
    stroke-linejoin="round" />
  <path d="M17.7859 107.656H72.5513" stroke="#53C3D9" stroke-width="6.57046" stroke-linecap="round"
    stroke-linejoin="round" />
  <path d="M11.1331 126.253C11.2309 125.441 30.763 63.1601 39.8812 35.0938H95.4869" stroke="#53C3D9"
    stroke-width="6.57046" stroke-linecap="round" stroke-linejoin="round" />
  <path d="M66.6155 126.253C66.7134 125.441 86.3687 63.8554 95.4869 35.7891L109.942 94.6587"
    stroke="#53C3D9" stroke-width="6.57046" stroke-linecap="round" stroke-linejoin="round" />
  <path d="M81.9153 78.5547H103.993" stroke="#53C3D9" stroke-width="6.57046" stroke-linecap="round"
    stroke-linejoin="round" />
</svg>
  