<svg width="32" height="33" viewBox="0 0 32 33" fill="none" xmlns="http://www.w3.org/2000/svg">
<path d="M6 16.5V5.5C6 5.23478 6.10536 4.98043 6.29289 4.79289C6.48043 4.60536 6.73478 4.5 7 4.5H19L26 11.5V16.5" stroke="#53C3D9" stroke-width="2" stroke-linecap="round" stroke-linejoin="round"/>
<path d="M19 4.5V11.5H26" stroke="#53C3D9" stroke-width="2" stroke-linecap="round" stroke-linejoin="round"/>
<path d="M10.5903 27.8145C10.665 27.9188 10.7126 28.0448 10.7261 28.179C10.7224 28.2658 10.6877 28.3437 10.6355 28.398C10.5837 28.4517 10.5197 28.4779 10.4579 28.4795C10.4013 28.4771 10.3446 28.4601 10.2927 28.4281C10.2386 28.3947 10.1906 28.3456 10.1554 28.283L10.1464 28.267L10.1362 28.2518L8.37299 25.6138L8.23125 25.4018H7.97619H6.60853H6.13125V25.879V28.091C6.13125 28.1974 6.09095 28.2946 6.02662 28.3625C5.9631 28.4295 5.88258 28.462 5.80437 28.462C5.72616 28.462 5.64564 28.4295 5.58212 28.3625C5.51779 28.2946 5.47749 28.1973 5.47749 28.091V21.3698H5.4776L5.47737 21.3592C5.47621 21.3068 5.4853 21.2551 5.50349 21.2077C5.52167 21.1603 5.54819 21.1191 5.58012 21.0859C5.61199 21.0528 5.64844 21.0284 5.68646 21.0129C5.72441 20.9973 5.76402 20.9905 5.80318 20.9921L5.81271 20.9924H5.82224H7.96666H7.99342L8.02001 20.9895C8.3047 20.9574 8.59286 20.9887 8.8663 21.0817C9.13982 21.1748 9.39365 21.328 9.61074 21.533C9.8279 21.7381 10.0034 21.9905 10.1245 22.2748C10.2456 22.5591 10.3092 22.868 10.3105 23.1814L10.3104 23.1814L10.3106 23.1899C10.3189 23.5711 10.2291 23.9463 10.0525 24.2753C9.87599 24.6042 9.62021 24.8732 9.31502 25.0564L8.88068 25.3171L9.16683 25.7352L10.5845 27.8063L10.5844 27.8064L10.5903 27.8145ZM6.13006 24.3848V24.862H6.60734H7.94185C8.15801 24.8707 8.37321 24.834 8.5746 24.7545C8.77984 24.6734 8.96558 24.55 9.12129 24.3931C9.27694 24.2363 9.39943 24.0493 9.48266 23.844C9.56587 23.6388 9.60845 23.4188 9.60845 23.1971C9.60845 22.9754 9.56587 22.7554 9.48266 22.5502C9.39944 22.345 9.27694 22.1579 9.12129 22.0011C8.96558 21.8442 8.77984 21.7208 8.5746 21.6398C8.37321 21.5602 8.15801 21.5235 7.94185 21.5322H6.60734H6.13006V22.0095V24.3848Z" fill="#53C3D9" stroke="#53C3D9" stroke-width="0.954545"/>
<path fill-rule="evenodd" clip-rule="evenodd" d="M19.8513 28.2737C19.8523 28.3823 19.8326 28.4899 19.7933 28.5902C19.7541 28.6905 19.6961 28.7815 19.6229 28.8577C19.5496 28.9339 19.4626 28.9938 19.367 29.0338C19.2713 29.0738 19.1691 29.0932 19.0662 29.0906C18.8951 29.0874 18.7294 29.0274 18.5925 28.9191C18.4556 28.8108 18.3546 28.6597 18.3037 28.4874L17.9702 27.6328H14.6487L14.3151 28.4874C14.2686 28.6597 14.1705 28.8116 14.0355 28.9203C13.9004 29.0291 13.7357 29.0888 13.5658 29.0906C13.4622 29.0935 13.3592 29.0745 13.2627 29.0347C13.1662 28.995 13.0782 28.9354 13.0038 28.8593C12.9295 28.7832 12.8703 28.6922 12.8297 28.5916C12.7891 28.4911 12.768 28.383 12.7676 28.2737C12.7756 28.1184 12.8078 27.9656 12.8629 27.8213L15.5553 21.075C15.6094 20.9073 15.7119 20.7617 15.8485 20.6586C15.985 20.5554 16.1487 20.5 16.3166 20.5C16.4845 20.5 16.6482 20.5554 16.7847 20.6586C16.9212 20.7617 17.0238 20.9073 17.0779 21.075L19.7584 27.82C19.8183 27.9626 19.8499 28.1166 19.8513 28.2725V28.2737ZM15.1738 26.2378H17.4374L16.3175 22.9978L15.1738 26.2378Z" fill="#53C3D9"/>
<path fill-rule="evenodd" clip-rule="evenodd" d="M28.2035 28.1789C28.2001 28.3862 28.1199 28.5838 27.98 28.7294C27.8402 28.8751 27.6519 28.9572 27.4554 28.9581C27.3106 28.9549 27.169 28.9129 27.0439 28.8359C26.9189 28.7589 26.8144 28.6496 26.7406 28.5183L24.9774 25.879H23.6085V28.091C23.6085 28.3159 23.5238 28.5317 23.373 28.6908C23.2222 28.8499 23.0176 28.9393 22.8044 28.9393C22.5911 28.9393 22.3866 28.8499 22.2357 28.6908C22.0849 28.5317 22.0002 28.3159 22.0002 28.091V21.3698C21.9977 21.2557 22.0173 21.1424 22.0579 21.0367C22.0985 20.931 22.1591 20.8351 22.2361 20.7551C22.3132 20.675 22.4049 20.6124 22.5057 20.5712C22.6065 20.5299 22.7142 20.5109 22.8222 20.5152H24.9667C25.3215 20.4753 25.6804 20.5143 26.02 20.6299C26.3597 20.7454 26.6726 20.9349 26.9384 21.186C27.2043 21.4371 27.4173 21.7443 27.5636 22.0877C27.7099 22.4311 27.7863 22.803 27.7878 23.1795C27.7978 23.6419 27.6891 24.0986 27.473 24.501C27.257 24.9035 26.9417 25.2368 26.5607 25.4656L27.9784 27.5367C28.1114 27.7225 28.1901 27.9453 28.2047 28.1777L28.2035 28.1789ZM23.6094 24.3848H24.9544C25.1066 24.3921 25.2586 24.3669 25.4013 24.3105C25.544 24.2542 25.6744 24.1679 25.7846 24.0569C25.8948 23.9459 25.9825 23.8125 26.0424 23.6647C26.1023 23.5169 26.1332 23.3578 26.1332 23.1971C26.1332 23.0364 26.1023 22.8773 26.0424 22.7295C25.9825 22.5818 25.8948 22.4483 25.7846 22.3373C25.6744 22.2263 25.544 22.14 25.4013 22.0837C25.2586 22.0273 25.1066 22.0021 24.9544 22.0095H23.6094V24.3848Z" fill="#53C3D9"/>
</svg>
