<svg width="16" height="16" viewBox="0 0 16 16" fill="none" xmlns="http://www.w3.org/2000/svg">
  <path
    d="M8.70625 8.00242L12.8563 3.85867C12.936 3.76152 12.9767 3.63819 12.9706 3.51267C12.9644 3.38714 12.9118 3.26839 12.8229 3.17953C12.734 3.09066 12.6153 3.03802 12.4898 3.03186C12.3642 3.02569 12.2409 3.06644 12.1438 3.14617L8 7.29617L3.85626 3.14617C3.75911 3.06644 3.63578 3.02569 3.51025 3.03186C3.38472 3.03802 3.26598 3.09066 3.17711 3.17953C3.08824 3.26839 3.03561 3.38714 3.02944 3.51267C3.02328 3.63819 3.06402 3.76152 3.14375 3.85867L7.29375 8.00242L3.14375 12.1462C3.04986 12.241 2.99719 12.369 2.99719 12.5024C2.99719 12.6358 3.04986 12.7639 3.14375 12.8587C3.23933 12.9511 3.36706 13.0027 3.50001 13.0027C3.63295 13.0027 3.76068 12.9511 3.85626 12.8587L8 8.70867L12.1438 12.8587C12.2393 12.9511 12.3671 13.0027 12.5 13.0027C12.6329 13.0027 12.7607 12.9511 12.8563 12.8587C12.9501 12.7639 13.0028 12.6358 13.0028 12.5024C13.0028 12.369 12.9501 12.241 12.8563 12.1462L8.70625 8.00242Z"
    fill="#337ABC" />
</svg>
  