<svg width="32" height="32" viewBox="0 0 32 32" fill="none" xmlns="http://www.w3.org/2000/svg">
<path d="M23.3214 9.56219C23.1695 9.4837 23.0217 9.39765 22.8784 9.30437C22.4618 9.02896 22.0799 8.70445 21.7408 8.33781C20.8923 7.36703 20.5754 6.38219 20.4587 5.69266H20.4634C20.3659 5.12031 20.4062 4.75 20.4123 4.75H16.5479V19.6928C16.5479 19.8934 16.5479 20.0917 16.5395 20.2877C16.5395 20.312 16.5372 20.3345 16.5358 20.3608C16.5358 20.3716 16.5358 20.3828 16.5334 20.3941C16.5334 20.3969 16.5334 20.3997 16.5334 20.4025C16.4927 20.9386 16.3208 21.4566 16.0329 21.9107C15.7451 22.3648 15.35 22.7413 14.8825 23.0069C14.3952 23.2841 13.8441 23.4295 13.2836 23.4287C11.4831 23.4287 10.0239 21.9606 10.0239 20.1475C10.0239 18.3344 11.4831 16.8662 13.2836 16.8662C13.6244 16.8659 13.9631 16.9196 14.2872 17.0252L14.2918 13.0905C13.3081 12.9634 12.3087 13.0416 11.3567 13.3201C10.4047 13.5986 9.52074 14.0714 8.7606 14.7086C8.09454 15.2873 7.53457 15.9778 7.10591 16.7491C6.94279 17.0303 6.32732 18.1605 6.25279 19.9947C6.20591 21.0358 6.51857 22.1144 6.66763 22.5602V22.5695C6.76138 22.832 7.12466 23.7278 7.71669 24.483C8.19409 25.0887 8.75811 25.6208 9.3906 26.0622V26.0528L9.39997 26.0622C11.2708 27.3334 13.345 27.25 13.345 27.25C13.704 27.2355 14.9068 27.25 16.2728 26.6027C17.7878 25.885 18.6503 24.8158 18.6503 24.8158C19.2013 24.1769 19.6394 23.4488 19.9459 22.6628C20.2956 21.7436 20.4123 20.6411 20.4123 20.2005V12.273C20.4592 12.3011 21.0836 12.7141 21.0836 12.7141C21.0836 12.7141 21.9831 13.2906 23.3865 13.6661C24.3934 13.9333 25.75 13.9895 25.75 13.9895V10.1533C25.2747 10.2048 24.3095 10.0548 23.3214 9.56219Z" fill="white"/>
</svg>
