<svg width="32" height="32" viewBox="0 0 32 32" fill="none" xmlns="http://www.w3.org/2000/svg">
<path fill-rule="evenodd" clip-rule="evenodd" d="M5 11C5 7.68629 7.68629 5 11 5H21C24.3137 5 27 7.68629 27 11V21C27 24.3137 24.3137 27 21 27H11C7.68629 27 5 24.3137 5 21V11ZM16 12C13.7909 12 12 13.7909 12 16C12 18.2091 13.7909 20 16 20C18.2091 20 20 18.2091 20 16C20 13.7909 18.2091 12 16 12ZM10 16C10 12.6863 12.6863 10 16 10C19.3137 10 22 12.6863 22 16C22 19.3137 19.3137 22 16 22C12.6863 22 10 19.3137 10 16ZM22.5 11C23.0523 11 23.5 10.5523 23.5 10C23.5 9.44772 23.0523 9 22.5 9C21.9477 9 21.5 9.44772 21.5 10C21.5 10.5523 21.9477 11 22.5 11Z" fill="white"/>
</svg>
