<svg width="32" height="32" viewBox="0 0 32 32" fill="none" xmlns="http://www.w3.org/2000/svg">
<path fill-rule="evenodd" clip-rule="evenodd" d="M25.3813 7.75576C26.4265 8.05149 27.2338 8.88369 27.4975 9.93747C27.8436 11.8559 28.0116 13.8023 27.9993 15.7517C28.0062 17.672 27.8383 19.5889 27.4975 21.4787C27.2338 22.5324 26.4265 23.3646 25.3813 23.6604C23.505 24.1622 16 24.1622 16 24.1622C16 24.1622 8.49493 24.1622 6.61866 23.6604C5.59548 23.3804 4.79296 22.5862 4.50241 21.5659C4.15636 19.6475 3.98838 17.7011 4.00062 15.7517C3.99106 13.8169 4.15903 11.8852 4.50241 9.9811C4.76617 8.92733 5.57341 8.09512 6.61866 7.7994C8.49493 7.29761 16 7.29761 16 7.29761C16 7.29761 23.505 7.29761 25.3813 7.75576ZM19.818 15.7517L13.5456 19.3188V12.1846L19.818 15.7517Z" fill="white"/>
</svg>
